PathFileType	4	(X/Y/Z)	/Users/itak/Documents/Research/Walk-IL/dataset/trc/00463_00167.trc
DataRate	CameraRate	NumFrames	NumMarkers	Units	OrigDataRate	OrigDataStartFrame	OrigNumFrames
100.000000	100.000000	4	53	mm	100.000000	506	579
Frame#	Time	RPSI			LPSI			L3			STRN			T10			C7			CLAV			RBAK			LBAK			LSHO			LUPA			LAEL			LAOL			LWTS			LWPS			LFRA			LIFD			LHPS			LHTS			RSHO			RUPA			RAEL			RAOL			RWTS			RWPS			RFRA			RIFD			RHTS			RHPS			RBHD			LFHD			RFHD			LBHD			LHIP			RHIP			RASI			LASI			LKNE			LTHI			LANK			LTIP			LTOE			LMT1			LMT5			LHEE			RKNE			RTHI			RANK			RTIP			RTOE			RMT1			RMT5			RHEE			
		X1	Y1	Z1	X2	Y2	Z2	X3	Y3	Z3	X4	Y4	Z4	X5	Y5	Z5	X6	Y6	Z6	X7	Y7	Z7	X8	Y8	Z8	X9	Y9	Z9	X10	Y10	Z10	X11	Y11	Z11	X12	Y12	Z12	X13	Y13	Z13	X14	Y14	Z14	X15	Y15	Z15	X16	Y16	Z16	X17	Y17	Z17	X18	Y18	Z18	X19	Y19	Z19	X20	Y20	Z20	X21	Y21	Z21	X22	Y22	Z22	X23	Y23	Z23	X24	Y24	Z24	X25	Y25	Z25	X26	Y26	Z26	X27	Y27	Z27	X28	Y28	Z28	X29	Y29	Z29	X30	Y30	Z30	X31	Y31	Z31	X32	Y32	Z32	X33	Y33	Z33	X34	Y34	Z34	X35	Y35	Z35	X36	Y36	Z36	X37	Y37	Z37	X38	Y38	Z38	X39	Y39	Z39	X40	Y40	Z40	X41	Y41	Z41	X42	Y42	Z42	X43	Y43	Z43	X44	Y44	Z44	X45	Y45	Z45	X46	Y46	Z46	X47	Y47	Z47	X48	Y48	Z48	X49	Y49	Z49	X50	Y50	Z50	X51	Y51	Z51	X52	Y52	Z52	X53	Y53	Z53	

507	5.06	127.2117767333984	965.8529663085938	196.2582855224609	270.1080932617188	965.7693481445312	187.3128204345703	180.6034240722656	1052.893798828125	210.5746917724609	219.9647064208984	1259.437622070312	474.2080078125	180.0574493408203	1176.94873046875	190.5931243896484	177.9864044189453	1447.08740234375	249.7614898681641	220.6445007324219	1372.038330078125	434.9648742675781	75.68483734130859	1326.857666015625	205.8256378173828	272.7872619628906	1398.9697265625	203.7330474853516	368.4269104003906	1423.395629882812	292.7384643554688	462.3170776367188	1305.212158203125	265.38232421875	496.6575317382812	1089.753051757812	267.1414794921875	414.5080871582031	1081.777465820312	204.9378509521484	476.5593872070312	872.5159301757812	320.4164733886719	521.948486328125	871.927734375	261.3067016601562	512.4735107421875	1001.08837890625	272.3924560546875	486.9671020507812	706.033447265625	277.2323303222656	527.3365478515625	794.0440063476562	250.7627105712891	493.7958984375	783.2879028320312	313.8037109375	29.74937629699707	1426.27294921875	340.1405334472656	-50.38710784912109	1368.00048828125	332.2672729492188	-120.7530517578125	1085.167602539062	357.033447265625	-86.18553924560547	1061.146362304688	303.0107421875	-63.01495742797852	895.6477661132812	477.4756774902344	-128.645751953125	872.6709594726562	422.2704772949219	-129.9996795654297	1027.405029296875	369.8616333007812	-72.55557250976562	741.5079345703125	505.1524047851562	-75.12648010253906	801.722412109375	509.3933715820312	-124.515869140625	789.4764404296875	452.2545471191406	98.33654022216797	1640.998413085938	369.5504760742188	297.4432983398438	1678.532836914062	411.2108459472656	182.4349975585938	1673.149780273438	473.685302734375	245.7715606689453	1650.505004882812	269.8326721191406	399.8404235839844	864.3881225585938	316.3107299804688	1.472978830337524	858.6435546875	321.2020874023438	66.25887298583984	897.3449096679688	420.0505676269531	322.8914794921875	902.3900756835938	416.2238464355469	376.1882019042969	445.3279724121094	368.2072448730469	391.720458984375	601.1414794921875	375.743896484375	388.7918395996094	39.15642547607422	239.2566986083984	393.9846496582031	292.9642944335938	340.8489074707031	304.6329650878906	42.67142868041992	467.7123107910156	282.03662109375	52.71736526489258	390.600341796875	396.5093688964844	37.19237899780273	392.5012817382812	326.1602172851562	49.43778991699219	192.8271789550781	23.83903884887695	464.3554992675781	331.9032592773438	-6.629443645477295	723.9906616210938	356.6033325195312	19.30818939208984	35.47758865356445	288.1709289550781	13.37733936309814	324.6020202636719	333.7753601074219	93.27481079101562	44.24462127685547	496.1849975585938	119.3657608032227	49.68759155273438	429.9494018554688	10.10480690002441	41.97719955444336	422.9478454589844	58.82284164428711	27.84385871887207	219.70166015625	
508	5.07	125.9747543334961	966.190185546875	196.3506469726562	268.7770385742188	966.061279296875	186.5706939697266	179.3534240722656	1053.352661132812	210.7600250244141	220.7904510498047	1259.083618164062	474.8451232910156	178.7002716064453	1177.407104492188	191.2708129882812	177.3871459960938	1447.418334960938	251.1651153564453	221.3775482177734	1371.774780273438	435.8743286132812	74.61738586425781	1327.359375	207.7283020019531	271.8184509277344	1399.34423828125	204.2477416992188	368.084228515625	1423.408447265625	292.5946044921875	461.6768188476562	1305.350219726562	264.0399475097656	496.3588562011719	1089.936645507812	265.0531311035156	413.7278747558594	1081.873291015625	203.5953369140625	476.8360900878906	873.1351318359375	319.7293701171875	521.4888305664062	872.0836791992188	259.9847717285156	512.2385864257812	1001.244262695312	270.5241088867188	486.98828125	706.3399047851562	277.8175354003906	526.9674682617188	794.1507568359375	250.1014404296875	494.0387573242188	783.9347534179688	313.5695495605469	29.8377628326416	1426.44384765625	342.5856628417969	-50.41080093383789	1368.296142578125	335.1329650878906	-120.6970062255859	1085.37158203125	359.2436828613281	-86.66649627685547	1061.680419921875	304.6040344238281	-61.76448440551758	894.8202514648438	477.5333251953125	-127.920783996582	872.419921875	423.198486328125	-129.8523254394531	1027.508666992188	371.7067260742188	-70.86219024658203	740.4583129882812	503.9317321777344	-73.44995880126953	800.6044311523438	508.7580261230469	-123.5398406982422	788.8433837890625	452.1212158203125	98.53224945068359	1640.917724609375	371.2514038085938	297.9277648925781	1678.561279296875	411.9013671875	183.1718597412109	1673.135986328125	474.9263305664062	245.5719909667969	1650.463012695312	270.8124084472656	399.4978942871094	864.4730834960938	314.782958984375	-0.007116016000509262	858.2464599609375	321.2257080078125	66.51120758056641	897.0382080078125	420.45849609375	323.1667175292969	902.331787109375	415.0051574707031	376.1822204589844	445.4231262207031	368.9627685546875	391.6705627441406	601.268798828125	375.6650085449219	389.0473327636719	38.99049758911133	239.3339996337891	393.8130187988281	292.9096984863281	341.4427490234375	305.0613708496094	43.90347671508789	467.6036376953125	282.2844543457031	53.34012603759766	390.6422424316406	396.4647827148438	37.43258666992188	392.3857116699219	326.4222412109375	49.33678817749023	192.9073028564453	23.53426742553711	464.2709655761719	332.2320861816406	-6.400492668151855	723.7003784179688	357.0048828125	19.24449157714844	35.48389434814453	288.1893005371094	13.25447177886963	324.477783203125	334.0668640136719	93.41604614257812	44.2220573425293	496.1138305664062	119.48046875	49.61220550537109	429.9005432128906	10.22312641143799	42.0281867980957	422.947021484375	58.71112060546875	27.78870010375977	219.6793060302734	
509	5.08	124.8115158081055	966.5060424804688	196.4853057861328	267.4732055664062	966.2291259765625	185.8386535644531	178.1951599121094	1053.760375976562	210.9560394287109	221.7571716308594	1258.651123046875	475.4498901367188	177.4159088134766	1177.819458007812	191.9378509521484	176.9019165039062	1447.6591796875	252.6203002929688	222.2429504394531	1371.43798828125	436.7658386230469	73.62808227539062	1327.821166992188	209.6885681152344	270.8869934082031	1399.624389648438	204.8130187988281	367.8390197753906	1423.3798828125	292.4252624511719	461.1181335449219	1305.433715820312	262.7038879394531	496.1221313476562	1090.070922851562	263.0506286621094	413.0337829589844	1081.871948242188	202.3301544189453	477.1619873046875	873.7723388671875	319.4174499511719	521.0468139648438	872.1763305664062	258.9833374023438	512.0543212890625	1001.344543457031	268.8380432128906	487.1028747558594	706.6351318359375	278.917724609375	526.6400146484375	794.1918334960938	249.8588562011719	494.3195190429688	784.5905151367188	313.7437744140625	30.06288528442383	1426.572143554688	345.1024780273438	-50.30082321166992	1368.571166992188	338.1083374023438	-120.4614562988281	1085.552001953125	361.5050964355469	-87.05349731445312	1062.2333984375	306.2493896484375	-60.47431182861328	893.8651123046875	477.4802551269531	-127.2527618408203	872.09130859375	423.9282836914062	-129.5888366699219	1027.588623046875	373.5665283203125	-69.26419067382812	739.2692260742188	502.4416198730469	-71.78357696533203	799.3369750976562	507.9066467285156	-122.6094055175781	788.1449584960938	451.7965393066406	98.81879425048828	1640.80322265625	372.9245300292969	298.5182800292969	1678.521728515625	412.60986328125	183.9917907714844	1673.07373046875	476.1468505859375	245.5131988525391	1650.361328125	271.8018493652344	399.1068420410156	864.3423461914062	313.1162109375	-1.311921358108521	857.9586181640625	321.3785705566406	66.84453582763672	896.7418212890625	420.8490295410156	323.5361633300781	902.1328735351562	413.7825012207031	376.149658203125	445.3779296875	369.5012512207031	391.630126953125	601.25146484375	375.4449157714844	389.2648315429688	38.76430511474609	239.3333587646484	393.6295471191406	292.7359008789062	341.8381958007812	305.4420471191406	45.1984977722168	467.47705078125	282.4944763183594	53.90357971191406	390.6292724609375	396.4210205078125	37.69903182983398	392.2210083007812	326.6316528320312	49.02737426757812	192.9056549072266	23.26863670349121	464.1996154785156	332.4689331054688	-6.092690944671631	723.4202880859375	357.3900451660156	19.20436668395996	35.49888229370117	288.2051086425781	13.16010856628418	324.3748474121094	334.2814331054688	93.54499053955078	44.20042419433594	496.0506286621094	119.5951156616211	49.53488540649414	429.8536987304688	10.33952045440674	42.08038711547852	422.9371643066406	58.64713668823242	27.73497581481934	219.6456909179688	
510	5.09	123.7504425048828	966.7904663085938	196.6599884033203	266.2378234863281	966.2487182617188	185.1305847167969	177.1608581542969	1054.104736328125	211.1598205566406	222.8707275390625	1258.13916015625	476.0197448730469	176.2308654785156	1178.168212890625	192.5963287353516	176.5284118652344	1447.782958984375	254.1122131347656	223.2384796142578	1371.0283203125	437.6382446289062	72.73429870605469	1328.234008789062	211.693603515625	269.9901733398438	1399.772827148438	205.4424133300781	367.6974487304688	1423.30078125	292.2362060546875	460.6557922363281	1305.449462890625	261.3898010253906	495.9550170898438	1090.139282226562	261.1431274414062	412.4362487792969	1081.764404296875	201.1420745849609	477.5107421875	874.4028930664062	319.4293212890625	520.6310424804688	872.1943969726562	258.2968444824219	511.9234313964844	1001.375244140625	267.3365783691406	487.2840576171875	706.9136962890625	280.4854431152344	526.3350830078125	794.1588745117188	250.0057067871094	494.6343383789062	785.2332153320312	314.2987365722656	30.42559623718262	1426.648315429688	347.6835021972656	-50.05385208129883	1368.810302734375	341.1768188476562	-120.0559768676758	1085.691284179688	363.8047485351562	-87.34860229492188	1062.782470703125	307.9520568847656	-59.16341018676758	892.7841796875	477.3361511230469	-126.6206207275391	871.6846923828125	424.4900207519531	-129.2145538330078	1027.633422851562	375.4346008300781	-67.76987457275391	737.9447631835938	500.7135314941406	-70.14240264892578	797.926513671875	506.8634643554688	-121.7351226806641	787.3796997070312	451.3050842285156	99.19981384277344	1640.648559570312	374.5667114257812	299.2063293457031	1678.411987304688	413.3371887207031	184.9000701904297	1672.95849609375	477.3465270996094	245.593017578125	1650.2001953125	272.7939453125	398.6914978027344	863.9806518554688	311.3626708984375	-2.371524333953857	857.7940063476562	321.6940612792969	67.25015258789062	896.460693359375	421.2234191894531	323.9703674316406	901.7833862304688	412.5784301757812	376.0762939453125	445.1900634765625	369.7321166992188	391.59521484375	601.0811767578125	375.0360412597656	389.4093017578125	38.48818206787109	239.2396087646484	393.4183654785156	292.44580078125	341.9800415039062	305.7454528808594	46.4432258605957	467.3275756835938	282.6476440429688	54.34833526611328	390.5550537109375	396.37548828125	37.97786331176758	392.0084838867188	326.7566833496094	48.5046272277832	192.8061218261719	23.06303977966309	464.1394653320312	332.6052551269531	-5.714313983917236	723.1552124023438	357.7603149414062	19.19107246398926	35.52370452880859	288.2153015136719	13.09980869293213	324.2914733886719	334.4236145019531	93.66064453125	44.18066024780273	495.9970703125	119.7085723876953	49.45809173583984	429.8103637695312	10.4488582611084	42.13456726074219	422.9187927246094	58.624267578125	27.68506050109863	219.6048889160156	
